# xmcd CD database file
#
# Track frame offsets:
#	150
#	13015
#	32603
#	51667
#	71794
#	91807
#	109877
#	136963
#	153240
#	167798
#	187838
#	208285
#	225079
#	244037
#	257641
#
# Disc length: 3643 seconds
#
# Revision: 0
# Processed by: cddbd v1.4PL0 Copyright (c) Steve Scherf et al.
# Submitted via: Feurio! 1.65 - http://www.feurio.com
#
DISCID=c60e390f
DTITLE=Fread James - Life Is Hard
DYEAR=1998
DGENRE=Bluesrock
TTITLE0=Lean Clean Lovin' Machine
TTITLE1=Everybody's Gettin' Them Some
TTITLE2=You're Gonna Burn
TTITLE3=The Sword
TTITLE4=I'm Gonna Love You
TTITLE5=Headed For Hard Times
TTITLE6=Life Is Hard
TTITLE7=Kindhearted Woman Blues
TTITLE8=Part Time Woman (Full Time Man)
TTITLE9=You Got The Walk
TTITLE10=Women, Whiskey, Guns and Knives
TTITLE11=Heat Up The Oven
TTITLE12=Indigo
TTITLE13=You Can't Buy The Blues
TTITLE14=The Strength To Stand Alone
EXTD=1998 Indigo Recordings Inc., London
EXTT0=
EXTT1=
EXTT2=
EXTT3=
EXTT4=
EXTT5=
EXTT6=
EXTT7=
EXTT8=
EXTT9=
EXTT10=
EXTT11=
EXTT12=
EXTT13=
EXTT14=
PLAYORDER=
